<svg width="40" height="40" viewBox="0 0 40 40" fill="none" xmlns="http://www.w3.org/2000/svg">
<path d="M0.000976562 5C0.000976562 2.23858 2.23955 0 5.00098 0H35.001C37.7624 0 40.001 2.23858 40.001 5V35C40.001 37.7614 37.7624 40 35.001 40H5.00098C2.23955 40 0.000976562 37.7614 0.000976562 35V5Z" fill="black"/>
<path d="M21.9295 21.9286C20.3581 23.55 20.2438 25.5714 20.1081 30C24.2367 30 27.0867 29.9857 28.5581 28.5571C29.9867 27.0857 30.001 24.1 30.001 20.1071C25.5724 20.25 23.551 20.3571 21.9295 21.9286ZM10.001 20.1071C10.001 24.1 10.0153 27.0857 11.4438 28.5571C12.9153 29.9857 15.7653 30 19.8938 30C19.751 25.5714 19.6438 23.55 18.0724 21.9286C16.451 20.3571 14.4295 20.2429 10.001 20.1071ZM19.8938 10C15.7724 10 12.9153 10.0143 11.4438 11.4429C10.0153 12.9143 10.001 15.9 10.001 19.8929C14.4295 19.75 16.451 19.6429 18.0724 18.0714C19.6438 16.45 19.7581 14.4286 19.8938 10ZM21.9295 18.0714C20.3581 16.45 20.2438 14.4286 20.1081 10C24.2367 10 27.0867 10.0143 28.5581 11.4429C29.9867 12.9143 30.001 15.9 30.001 19.8929C25.5724 19.75 23.551 19.6429 21.9295 18.0714Z" fill="white"/>
<path d="M30.001 20.1071V19.8929C25.5724 19.75 23.551 19.6429 21.9295 18.0714C20.3581 16.45 20.2438 14.4286 20.1081 10H19.8938C19.751 14.4286 19.6438 16.45 18.0724 18.0714C16.451 19.6429 14.4295 19.7571 10.001 19.8929V20.1071C14.4295 20.25 16.451 20.3571 18.0724 21.9286C19.6438 23.55 19.7581 25.5714 19.8938 30H20.1081C20.251 25.5714 20.3581 23.55 21.9295 21.9286C23.551 20.3571 25.5724 20.2429 30.001 20.1071Z" fill="black"/>
</svg>
