<svg width="40" height="40" viewBox="0 0 40 40" fill="none" xmlns="http://www.w3.org/2000/svg">
<rect x="0.000976562" width="40" height="40" rx="5" fill="#F40000"/>
<path fill-rule="evenodd" clip-rule="evenodd" d="M11.2635 27.0568C10.8712 26.9408 10.5133 26.7343 10.2199 26.4549C9.92658 26.1754 9.70638 25.8312 9.57792 25.4512C8.8439 23.4874 8.62641 15.2869 10.0401 13.6681C10.5106 13.1414 11.1749 12.8172 11.8887 12.7658C15.6812 12.3677 27.3985 12.4208 28.7442 12.8985C29.1227 13.0183 29.4685 13.2203 29.7557 13.4891C30.0429 13.758 30.264 14.0868 30.4025 14.451C31.2045 16.4812 31.2317 23.8589 30.2938 25.8095C30.045 26.3173 29.6284 26.7285 29.1112 26.9772C27.6975 27.6672 13.1393 27.6539 11.2635 27.0568ZM17.2852 23.2087L24.0817 19.7587L17.2852 16.2821V23.2087Z" fill="white"/>
</svg>
