<svg width="90" height="33" viewBox="0 0 90 33" fill="none" xmlns="http://www.w3.org/2000/svg">
<path d="M0.949808 29.0675C0.767828 29.0397 0.642859 28.8696 0.670683 28.6876C0.698507 28.5056 0.868586 28.3807 1.05057 28.4085L0.949808 29.0675ZM22.3334 31.9997L22.3334 32.3331L22.3081 32.3331L22.2831 32.3292L22.3334 31.9997ZM71.6665 16.3324L71.8818 16.5868L71.8631 16.6026L71.8423 16.6156L71.6665 16.3324ZM88.7021 1.60952C88.8856 1.62481 89.0219 1.78593 89.0066 1.96939L88.7574 4.95902C88.7421 5.14248 88.581 5.2788 88.3975 5.26351C88.2141 5.24822 88.0778 5.0871 88.0931 4.90364L88.3146 2.24619L85.6571 2.02467C85.4737 2.00938 85.3373 1.84826 85.3526 1.6648C85.3679 1.48134 85.529 1.34502 85.7125 1.36031L88.7021 1.60952ZM42.3332 30.3322L42.4384 30.6484L42.4129 30.6569L42.3863 30.6612L42.3332 30.3322ZM50.5348 27.6024L50.674 27.9053L50.6574 27.9129L50.6401 27.9187L50.5348 27.6024ZM32.0001 31.9997L32.0532 32.3288L32.0268 32.3331L32.0001 32.3331L32.0001 31.9997ZM61.9998 22.3324L62.1756 22.6156L62.158 22.6265L62.1391 22.6352L61.9998 22.3324ZM3.71722 28.8162C3.8992 28.844 4.02417 29.0141 3.99635 29.1961C3.96852 29.3781 3.79844 29.503 3.61646 29.4752L3.71722 28.8162ZM8.94978 30.2906C8.7678 30.2628 8.64283 30.0927 8.67065 29.9108C8.69847 29.7288 8.86855 29.6038 9.05053 29.6316L8.94978 30.2906ZM14.3838 30.4471C14.5658 30.4749 14.6908 30.645 14.663 30.827C14.6351 31.0089 14.4651 31.1339 14.2831 31.1061L14.3838 30.4471ZM19.6164 31.9215C19.4344 31.8937 19.3094 31.7236 19.3373 31.5416C19.3651 31.3596 19.5352 31.2347 19.7172 31.2625L19.6164 31.9215ZM24.7501 31.6664C24.9342 31.6664 25.0834 31.8156 25.0834 31.9997C25.0834 32.1838 24.9342 32.3331 24.7501 32.3331L24.7501 31.6664ZM29.5834 32.3331C29.3993 32.3331 29.2501 32.1838 29.2501 31.9997C29.2501 31.8156 29.3993 31.6664 29.5834 31.6664L29.5834 32.3331ZM34.5303 31.2538C34.712 31.2244 34.8831 31.348 34.9124 31.5297C34.9418 31.7115 34.8182 31.8826 34.6365 31.9119L34.5303 31.2538ZM39.803 31.0781C39.6213 31.1075 39.4502 30.9839 39.4208 30.8022C39.3915 30.6204 39.515 30.4493 39.6968 30.42L39.803 31.0781ZM44.2783 29.3334C44.453 29.2753 44.6417 29.3698 44.6998 29.5444C44.758 29.7191 44.6635 29.9078 44.4888 29.966L44.2783 29.3334ZM48.5897 28.6011C48.415 28.6592 48.2263 28.5648 48.1681 28.3901C48.11 28.2154 48.2045 28.0267 48.3791 27.9685L48.5897 28.6011ZM53.2618 25.982C53.4291 25.9051 53.627 25.9784 53.7039 26.1457C53.7808 26.3129 53.7076 26.5109 53.5403 26.5877L53.2618 25.982ZM59.2728 23.9527C59.1055 24.0296 58.9076 23.9564 58.8307 23.7891C58.7538 23.6218 58.8271 23.4239 58.9944 23.347L59.2728 23.9527ZM64.2407 20.5491C64.3971 20.4521 64.6026 20.5002 64.6997 20.6566C64.7968 20.813 64.7487 21.0185 64.5923 21.1156L64.2407 20.5491ZM69.4256 18.1156C69.2692 18.2127 69.0637 18.1646 68.9666 18.0081C68.8695 17.8517 68.9176 17.6462 69.0741 17.5491L69.4256 18.1156ZM73.5772 14.2791C73.7177 14.1601 73.9281 14.1777 74.047 14.3182C74.1659 14.4588 74.1483 14.6691 74.0078 14.788L73.5772 14.2791ZM78.2598 11.1903C78.1193 11.3092 77.9089 11.2917 77.79 11.1512C77.6711 11.0106 77.6886 10.8003 77.8292 10.6814L78.2598 11.1903ZM82.0812 7.08373C82.2217 6.96482 82.432 6.98235 82.5509 7.12289C82.6698 7.26343 82.6523 7.47375 82.5118 7.59266L82.0812 7.08373ZM86.7638 3.995C86.6232 4.11391 86.4129 4.09638 86.294 3.95584C86.1751 3.8153 86.1926 3.60498 86.3331 3.48606L86.7638 3.995ZM1.05057 28.4085L3.71722 28.8162L3.61646 29.4752L0.949808 29.0675L1.05057 28.4085ZM9.05053 29.6316L14.3838 30.4471L14.2831 31.1061L8.94978 30.2906L9.05053 29.6316ZM19.7172 31.2625L22.3838 31.6702L22.2831 32.3292L19.6164 31.9215L19.7172 31.2625ZM22.3334 31.6664L24.7501 31.6664L24.7501 32.3331L22.3334 32.3331L22.3334 31.6664ZM29.5834 31.6664L32.0001 31.6664L32.0001 32.3331L29.5834 32.3331L29.5834 31.6664ZM31.947 31.6707L34.5303 31.2538L34.6365 31.9119L32.0532 32.3288L31.947 31.6707ZM39.6968 30.42L42.2801 30.0031L42.3863 30.6612L39.803 31.0781L39.6968 30.42ZM42.2279 30.0159L44.2783 29.3334L44.4888 29.966L42.4384 30.6484L42.2279 30.0159ZM48.3791 27.9685L50.4295 27.2861L50.6401 27.9187L48.5897 28.6011L48.3791 27.9685ZM50.3956 27.2995L53.2618 25.982L53.5403 26.5877L50.674 27.9053L50.3956 27.2995ZM58.9944 23.347L61.8606 22.0295L62.1391 22.6352L59.2728 23.9527L58.9944 23.347ZM61.8241 22.0491L64.2407 20.5491L64.5923 21.1156L62.1756 22.6156L61.8241 22.0491ZM69.0741 17.5491L71.4907 16.0491L71.8423 16.6156L69.4256 18.1156L69.0741 17.5491ZM71.4512 16.0779L73.5772 14.2791L74.0078 14.788L71.8818 16.5868L71.4512 16.0779ZM77.8292 10.6814L82.0812 7.08373L82.5118 7.59266L78.2598 11.1903L77.8292 10.6814ZM86.3331 3.48606L88.4591 1.68723L88.8897 2.19616L86.7638 3.995L86.3331 3.48606ZM0.899429 29.397C0.535468 29.3414 0.285531 29.0012 0.341179 28.6372C0.396826 28.2733 0.736986 28.0233 1.10095 28.079L0.899429 29.397ZM22.3334 31.9997L22.3334 32.6664L22.2828 32.6664L22.2327 32.6587L22.3334 31.9997ZM71.6665 16.3324L72.0971 16.8413L72.0597 16.8729L72.0181 16.8988L71.6665 16.3324ZM88.7298 1.27733C89.0967 1.30792 89.3694 1.63016 89.3388 1.99708L88.8404 7.97634C88.8098 8.34326 88.4876 8.61591 88.1206 8.58533C87.7537 8.55474 87.4811 8.2325 87.5117 7.86558L87.9547 2.55068L82.6398 2.10765C82.2729 2.07706 82.0002 1.75483 82.0308 1.38791C82.0614 1.02099 82.3836 0.748342 82.7506 0.778924L88.7298 1.27733ZM42.3332 30.3322L42.5437 30.9647L42.4926 30.9817L42.4394 30.9903L42.3332 30.3322ZM50.5348 27.6024L50.8132 28.2081L50.78 28.2234L50.7453 28.2349L50.5348 27.6024ZM32.0001 31.9997L32.1063 32.6579L32.0535 32.6664L32.0001 32.6664L32.0001 31.9997ZM61.9998 22.3324L62.3514 22.8988L62.3161 22.9207L62.2783 22.9381L61.9998 22.3324ZM3.7676 28.4867C4.13156 28.5423 4.3815 28.8825 4.32585 29.2465C4.2702 29.6104 3.93004 29.8604 3.56608 29.8047L3.7676 28.4867ZM8.8994 30.6202C8.53544 30.5645 8.2855 30.2243 8.34115 29.8604C8.39679 29.4964 8.73695 29.2465 9.10091 29.3021L8.8994 30.6202ZM14.4342 30.1176C14.7982 30.1732 15.0481 30.5134 14.9925 30.8773C14.9368 31.2413 14.5967 31.4912 14.2327 31.4356L14.4342 30.1176ZM19.566 32.251C19.2021 32.1954 18.9521 31.8552 19.0078 31.4913C19.0634 31.1273 19.4036 30.8774 19.7675 30.933L19.566 32.251ZM24.7501 31.3331C25.1183 31.3331 25.4168 31.6315 25.4168 31.9997C25.4168 32.3679 25.1183 32.6664 24.7501 32.6664L24.7501 31.3331ZM29.5834 32.6664C29.2152 32.6664 28.9168 32.3679 28.9168 31.9997C28.9168 31.6315 29.2152 31.3331 29.5834 31.3331L29.5834 32.6664ZM34.4772 30.9247C34.8406 30.866 35.1829 31.1131 35.2415 31.4766C35.3002 31.8401 35.0531 32.1823 34.6896 32.241L34.4772 30.9247ZM39.8561 31.4072C39.4926 31.4659 39.1504 31.2187 39.0917 30.8553C39.0331 30.4918 39.2802 30.1496 39.6437 30.0909L39.8561 31.4072ZM44.173 29.0172C44.5224 28.9009 44.8998 29.0898 45.0161 29.4392C45.1324 29.7885 44.9435 30.166 44.5941 30.2823L44.173 29.0172ZM48.6949 28.9174C48.3456 29.0336 47.9681 28.8447 47.8518 28.4954C47.7356 28.146 47.9245 27.7685 48.2739 27.6523L48.6949 28.9174ZM53.1226 25.6791C53.4572 25.5254 53.853 25.6719 54.0068 26.0064C54.1606 26.341 54.014 26.7368 53.6795 26.8906L53.1226 25.6791ZM59.412 24.2556C59.0775 24.4094 58.6816 24.2628 58.5278 23.9283C58.3741 23.5938 58.5206 23.1979 58.8551 23.0441L59.412 24.2556ZM64.0649 20.2659C64.3778 20.0718 64.7888 20.168 64.9829 20.4808C65.1771 20.7936 65.0809 21.2046 64.7681 21.3988L64.0649 20.2659ZM69.6014 18.3988C69.2886 18.593 68.8776 18.4968 68.6834 18.1839C68.4892 17.8711 68.5854 17.4601 68.8983 17.2659L69.6014 18.3988ZM73.3619 14.0246C73.643 13.7868 74.0636 13.8218 74.3014 14.1029C74.5393 14.384 74.5042 14.8046 74.2231 15.0425L73.3619 14.0246ZM78.4751 11.4448C78.194 11.6826 77.7734 11.6476 77.5355 11.3665C77.2977 11.0854 77.3328 10.6647 77.6139 10.4269L78.4751 11.4448ZM81.8658 6.82926C82.1469 6.59144 82.5676 6.6265 82.8054 6.90758C83.0432 7.18866 83.0082 7.60931 82.7271 7.84713L81.8658 6.82926ZM86.9791 4.24947C86.698 4.48729 86.2773 4.45222 86.0395 4.17115C85.8017 3.89007 85.8368 3.46942 86.1178 3.2316L86.9791 4.24947ZM1.10095 28.079L3.7676 28.4867L3.56608 29.8047L0.899429 29.397L1.10095 28.079ZM9.10091 29.3021L14.4342 30.1176L14.2327 31.4356L8.8994 30.6202L9.10091 29.3021ZM19.7675 30.933L22.4342 31.3407L22.2327 32.6587L19.566 32.251L19.7675 30.933ZM22.3334 31.3331L24.7501 31.3331L24.7501 32.6664L22.3334 32.6664L22.3334 31.3331ZM29.5834 31.3331L32.0001 31.3331L32.0001 32.6664L29.5834 32.6664L29.5834 31.3331ZM31.8939 31.3416L34.4772 30.9247L34.6896 32.241L32.1063 32.6579L31.8939 31.3416ZM39.6437 30.0909L42.2269 29.674L42.4394 30.9903L39.8561 31.4072L39.6437 30.0909ZM42.1226 29.6996L44.173 29.0172L44.5941 30.2823L42.5437 30.9647L42.1226 29.6996ZM48.2739 27.6523L50.3243 26.9698L50.7453 28.2349L48.6949 28.9174L48.2739 27.6523ZM50.2564 26.9966L53.1226 25.6791L53.6795 26.8906L50.8132 28.2081L50.2564 26.9966ZM58.8551 23.0441L61.7214 21.7266L62.2783 22.9381L59.412 24.2556L58.8551 23.0441ZM61.6483 21.7659L64.0649 20.2659L64.7681 21.3988L62.3514 22.8988L61.6483 21.7659ZM68.8983 17.2659L71.3149 15.7659L72.0181 16.8988L69.6014 18.3988L68.8983 17.2659ZM71.2359 15.8234L73.3619 14.0246L74.2231 15.0425L72.0971 16.8413L71.2359 15.8234ZM77.6139 10.4269L81.8658 6.82926L82.7271 7.84713L78.4751 11.4448L77.6139 10.4269ZM86.1178 3.2316L88.2438 1.43276L89.1051 2.45063L86.9791 4.24947L86.1178 3.2316Z" fill="#D9D9D9" fill-opacity="0.5"/>
</svg>
