<svg width="26" height="25" viewBox="0 0 26 25" fill="none" xmlns="http://www.w3.org/2000/svg">
<path d="M22.2597 24.444C16.0845 24.444 9.90936 24.444 3.73419 24.444C3.68963 24.4312 3.64506 24.4121 3.6005 24.3994C2.21268 24.1384 1.31505 23.3299 0.894883 21.9866C0.843954 21.8211 0.812123 21.6492 0.773926 21.4837C0.773926 15.3085 0.773926 9.13335 0.773926 2.95818C0.793024 2.88815 0.812123 2.82449 0.824855 2.75447C1.0986 1.18202 2.47369 0.00428634 4.07796 0.00428634C10.0303 -0.00207982 15.9763 -0.00207982 21.9287 0.00428634C23.7303 0.00428634 25.2136 1.4876 25.22 3.28922C25.2263 9.24794 25.2263 15.2067 25.22 21.1654C25.22 22.6169 24.2332 23.8965 22.839 24.3039C22.648 24.3612 22.4571 24.3994 22.2597 24.444ZM20.6427 6.98796C20.6363 6.72695 20.5408 6.55506 20.3753 6.42774C20.0952 6.21765 19.8024 6.26222 19.4968 6.37044C14.9259 8.01928 10.355 9.66811 5.77772 11.3169C5.49125 11.4188 5.35756 11.578 5.36392 11.8071C5.37029 12.0363 5.51671 12.1891 5.80956 12.2655C6.8727 12.5583 7.93585 12.8512 9.00537 13.1313C9.20272 13.1822 9.30457 13.2714 9.3746 13.4751C9.75021 14.621 10.1704 15.7542 10.5269 16.9064C10.7306 17.5621 11.3354 17.6576 11.7683 17.2056C12.2521 16.6963 12.7869 16.2443 13.2834 15.7542C13.4235 15.6205 13.5062 15.6268 13.659 15.7287C14.7667 16.4926 15.8872 17.2311 16.9885 18.0014C17.5169 18.3706 18.1472 18.0842 18.2745 17.5048C18.9493 14.43 19.6559 11.3679 20.3499 8.29939C20.4517 7.84102 20.5472 7.38903 20.6427 6.98796Z" fill="#FC9B00"/>
<path d="M9.88408 13.1251C9.86498 12.9023 10.005 12.8259 10.1515 12.7432C11.8703 11.7628 13.5828 10.776 15.2953 9.79562C16.0529 9.36272 16.8105 8.92983 17.568 8.49693C17.6317 8.45873 17.6954 8.4269 17.759 8.4078C17.8354 8.3887 17.8991 8.42053 17.9373 8.49056C17.9691 8.55422 17.9436 8.61789 17.8991 8.66245C17.8545 8.70701 17.8036 8.74521 17.7526 8.78341C15.6836 10.4768 13.621 12.1638 11.5456 13.8509C11.3738 13.9909 11.2846 14.1437 11.2655 14.3729C11.2082 14.9586 11.1318 15.5379 11.0618 16.1236C11.0555 16.1809 11.0745 16.27 10.9918 16.2827C10.9027 16.2955 10.9027 16.2127 10.8836 16.1554C10.5589 15.1878 10.2342 14.2137 9.90954 13.2461C9.89681 13.1952 9.89044 13.1442 9.88408 13.1251Z" fill="#FC9B00"/>
</svg>
