<svg width="25" height="25" viewBox="0 0 25 25" fill="none" xmlns="http://www.w3.org/2000/svg">
<path d="M12.4493 4.95388C8.48251 4.95388 5.2578 8.17858 5.25235 12.1453C5.25235 13.504 5.63429 14.8299 6.35453 15.9702L6.52368 16.2431L5.79798 18.8948L8.5207 18.1801L8.78261 18.3383C9.88479 18.9931 11.1507 19.3423 12.4438 19.3423H12.4493C16.4106 19.3423 19.7226 16.1176 19.7226 12.1508C19.7226 10.2302 18.8932 8.42411 17.5346 7.06548C16.1705 5.7014 14.3699 4.95388 12.4493 4.95388ZM16.6779 15.2336C16.4979 15.7411 15.6358 16.1994 15.2211 16.2594C14.5336 16.3631 13.9989 16.3085 12.6293 15.7193C10.4632 14.7808 9.04451 12.5982 8.93538 12.4564C8.82626 12.3145 8.05146 11.2832 8.05146 10.2193C8.05146 9.15527 8.608 8.63146 8.80989 8.4132C9.00632 8.19495 9.24094 8.14038 9.38826 8.14038C9.53013 8.14038 9.67745 8.14038 9.80294 8.14584C9.9339 8.1513 10.114 8.09673 10.2886 8.51687C10.4686 8.94792 10.8997 10.0119 10.9542 10.121C11.0088 10.2302 11.047 10.3557 10.9706 10.4975C10.5559 11.3269 10.114 11.2942 10.3377 11.6761C11.1725 13.1111 12.0073 13.6076 13.2786 14.246C13.4969 14.3552 13.6224 14.3388 13.7479 14.1915C13.8734 14.0496 14.2881 13.5585 14.4299 13.3457C14.5718 13.1275 14.7191 13.1657 14.9155 13.2366C15.112 13.3075 16.176 13.8314 16.3942 13.9405C16.6125 14.0496 16.7543 14.1042 16.8089 14.1915C16.858 14.2951 16.858 14.7317 16.6779 15.2336ZM22.0524 -0.000488281H2.8461C1.40017 -0.000488281 0.227051 1.17263 0.227051 2.61856V21.8249C0.227051 23.2708 1.40017 24.444 2.8461 24.444H22.0524C23.4984 24.444 24.6715 23.2708 24.6715 21.8249V2.61856C24.6715 1.17263 23.4984 -0.000488281 22.0524 -0.000488281ZM12.4438 20.7991C10.9924 20.7991 9.56832 20.4335 8.3079 19.746L3.71911 20.9519L4.94679 16.4668C4.18836 15.1572 3.79005 13.6677 3.79005 12.1399C3.7955 7.37104 7.67497 3.49158 12.4438 3.49158C14.7573 3.49158 16.9289 4.39187 18.5658 6.02878C20.1973 7.66568 21.1794 9.83731 21.1794 12.1508C21.1794 16.9196 17.2127 20.7991 12.4438 20.7991Z" fill="#FC9B00"/>
</svg>
