<svg width="25" height="25" viewBox="0 0 25 25" fill="none" xmlns="http://www.w3.org/2000/svg">
<path fill-rule="evenodd" clip-rule="evenodd" d="M21.6434 -0.000488281H3.46504C1.7437 -0.000488281 0.332031 1.41113 0.332031 3.13253V21.3109C0.332031 23.0324 1.7437 24.444 3.46504 24.444H21.6434C23.3649 24.444 24.7765 23.0324 24.7765 21.3109V3.13253C24.7765 1.41113 23.3649 -0.000488281 21.6434 -0.000488281ZM18.1067 12.9038C18.1876 13.6699 20.8717 15.2754 20.671 16.5105C20.5806 17.0639 19.6518 16.966 18.8279 16.9921C18.067 17.0166 17.3229 16.967 16.986 16.8319C16.4292 16.6091 14.9669 14.6731 14.5819 14.7489C13.7264 14.9155 14.0361 16.7066 13.7811 16.8319C13.4156 17.0111 12.2294 16.9575 11.7796 16.9113C9.36909 16.5064 7.97173 14.8911 6.65194 12.8251C5.0383 10.2993 4.08379 8.403 4.48896 8.17755C4.93436 7.93021 6.18128 7.98276 7.45316 8.01663C7.83179 8.02803 8.9324 10.7686 9.21509 11.2236C10.3625 13.0594 10.7217 11.7034 10.7378 11.5436C11.0488 8.25033 10.2426 8.39888 9.77614 8.33751C10.1278 7.2698 12.5794 7.45644 12.5794 7.45644C12.5794 7.45644 13.3995 7.65485 13.701 7.85692C13.825 7.94105 13.9641 8.20678 13.941 9.05959C13.9083 10.3437 13.7779 12.0952 14.3422 12.1038C14.7775 12.1102 15.4671 11.0863 16.0245 10.0208C16.5176 9.07797 16.8973 8.16396 17.0654 8.0979C17.2475 8.02615 18.035 8.02121 18.8279 8.01658C19.6043 8.01291 20.387 8.00644 20.5907 8.1775C21.0014 8.52405 20.2873 9.64814 19.6286 10.581C19.0895 11.348 18.0489 12.3576 18.1067 12.9038Z" fill="#FC9B00"/>
</svg>
