<svg width="1280" height="7" viewBox="0 0 1280 7" fill="none" xmlns="http://www.w3.org/2000/svg">
<path fill-rule="evenodd" clip-rule="evenodd" d="M-13.668 0.666016C-15.3248 0.666016 -16.668 2.00916 -16.668 3.66602C-16.668 5.32287 -15.3248 6.66602 -13.668 6.66602H14.332C15.9889 6.66602 17.332 5.32287 17.332 3.66602C17.332 2.00916 15.9889 0.666016 14.332 0.666016H-13.668ZM60.9995 0.666016C59.3426 0.666016 57.9995 2.00916 57.9995 3.66602C57.9995 5.32287 59.3426 6.66602 60.9995 6.66602H89.6662C91.323 6.66602 92.6662 5.32287 92.6662 3.66602C92.6662 2.00916 91.323 0.666016 89.6662 0.666016H60.9995ZM132.665 3.66602C132.665 2.00916 134.008 0.666016 135.665 0.666016H164.332C165.988 0.666016 167.332 2.00916 167.332 3.66602C167.332 5.32287 165.988 6.66602 164.332 6.66602H135.665C134.008 6.66602 132.665 5.32287 132.665 3.66602ZM210.998 0.666016C209.342 0.666016 207.998 2.00916 207.998 3.66602C207.998 5.32287 209.342 6.66602 210.998 6.66602H238.998C240.655 6.66602 241.998 5.32287 241.998 3.66602C241.998 2.00916 240.655 0.666016 238.998 0.666016H210.998ZM282.666 3.66602C282.666 2.00916 284.009 0.666016 285.666 0.666016H313.666C315.323 0.666016 316.666 2.00916 316.666 3.66602C316.666 5.32287 315.323 6.66602 313.666 6.66602H285.666C284.009 6.66602 282.666 5.32287 282.666 3.66602ZM360.331 0.666016C358.674 0.666016 357.331 2.00916 357.331 3.66602C357.331 5.32287 358.674 6.66602 360.331 6.66602H388.998C390.655 6.66602 391.998 5.32287 391.998 3.66602C391.998 2.00916 390.655 0.666016 388.998 0.666016H360.331ZM432 3.66602C432 2.00916 433.343 0.666016 435 0.666016H463.666C465.323 0.666016 466.666 2.00916 466.666 3.66602C466.666 5.32287 465.323 6.66602 463.666 6.66602H435C433.343 6.66602 432 5.32287 432 3.66602ZM509.665 0.666016C508.008 0.666016 506.665 2.00916 506.665 3.66602C506.665 5.32287 508.008 6.66602 509.665 6.66602H538.332C539.989 6.66602 541.332 5.32287 541.332 3.66602C541.332 2.00916 539.989 0.666016 538.332 0.666016H509.665ZM581.999 3.66602C581.999 2.00916 583.342 0.666016 584.999 0.666016H612.999C614.656 0.666016 615.999 2.00916 615.999 3.66602C615.999 5.32287 614.656 6.66602 612.999 6.66602H584.999C583.342 6.66602 581.999 5.32287 581.999 3.66602ZM659.665 0.666016C658.008 0.666016 656.665 2.00916 656.665 3.66602C656.665 5.32287 658.008 6.66602 659.665 6.66602H687.665C689.322 6.66602 690.665 5.32287 690.665 3.66602C690.665 2.00916 689.322 0.666016 687.665 0.666016H659.665ZM731.333 3.66602C731.333 2.00916 732.676 0.666016 734.333 0.666016H762.999C764.656 0.666016 765.999 2.00916 765.999 3.66602C765.999 5.32287 764.656 6.66602 762.999 6.66602H734.333C732.676 6.66602 731.333 5.32287 731.333 3.66602ZM808.999 0.666016C807.342 0.666016 805.999 2.00916 805.999 3.66602C805.999 5.32287 807.342 6.66602 808.999 6.66602H837.666C839.323 6.66602 840.666 5.32287 840.666 3.66602C840.666 2.00916 839.323 0.666016 837.666 0.666016H808.999ZM880.666 3.66602C880.666 2.00916 882.009 0.666016 883.666 0.666016H912.332C913.989 0.666016 915.332 2.00916 915.332 3.66602C915.332 5.32287 913.989 6.66602 912.332 6.66602H883.666C882.009 6.66602 880.666 5.32287 880.666 3.66602ZM958.999 0.666016C957.342 0.666016 955.999 2.00916 955.999 3.66602C955.999 5.32287 957.342 6.66602 958.999 6.66602H986.999C988.656 6.66602 989.999 5.32287 989.999 3.66602C989.999 2.00916 988.656 0.666016 986.999 0.666016H958.999ZM1030.67 3.66603C1030.67 2.00917 1032.01 0.666027 1033.67 0.666027H1061.67C1063.32 0.666027 1064.67 2.00917 1064.67 3.66603C1064.67 5.32288 1063.32 6.66603 1061.67 6.66603H1033.67C1032.01 6.66603 1030.67 5.32288 1030.67 3.66603ZM1108.33 0.666027C1106.67 0.666027 1105.33 2.00917 1105.33 3.66603C1105.33 5.32288 1106.67 6.66603 1108.33 6.66603H1137C1138.66 6.66603 1140 5.32288 1140 3.66603C1140 2.00917 1138.66 0.666027 1137 0.666027H1108.33ZM1180 3.66603C1180 2.00917 1181.34 0.666027 1183 0.666027H1211.67C1213.32 0.666027 1214.67 2.00917 1214.67 3.66603C1214.67 5.32288 1213.32 6.66603 1211.67 6.66603H1183C1181.34 6.66603 1180 5.32288 1180 3.66603ZM1258.33 0.666027C1256.68 0.666027 1255.33 2.00917 1255.33 3.66603C1255.33 5.32288 1256.68 6.66603 1258.33 6.66603H1286.33C1287.99 6.66603 1289.33 5.32288 1289.33 3.66603C1289.33 2.00917 1287.99 0.666027 1286.33 0.666027H1258.33Z" fill="white"/>
</svg>
