<svg width="26" height="25" viewBox="0 0 26 25" fill="none" xmlns="http://www.w3.org/2000/svg">
<path d="M22.2621 24.4444C16.087 24.4444 9.9118 24.4444 3.73663 24.4444C3.69207 24.4317 3.6475 24.4126 3.60294 24.3999C2.21512 24.1389 1.31749 23.3304 0.897324 21.9871C0.846395 21.8216 0.814564 21.6497 0.776367 21.4842C0.776367 15.309 0.776367 9.13384 0.776367 2.95867C0.795466 2.88864 0.814564 2.82498 0.827296 2.75495C1.10104 1.18251 2.47613 0.00477462 4.0804 0.00477462C10.0328 -0.00159154 15.9787 -0.00159154 21.9311 0.00477462C23.7327 0.00477462 25.216 1.48809 25.2224 3.28971C25.2288 9.24843 25.2288 15.2072 25.2224 21.1659C25.2224 22.6174 24.2357 23.897 22.8415 24.3044C22.6505 24.3617 22.4595 24.3999 22.2621 24.4444ZM20.6451 6.98845C20.6388 6.72743 20.5433 6.55555 20.3778 6.42823C20.0977 6.21814 19.8048 6.2627 19.4992 6.37093C14.9283 8.01976 10.3574 9.6686 5.78017 11.3174C5.49369 11.4193 5.36 11.5784 5.36637 11.8076C5.37273 12.0368 5.51915 12.1896 5.812 12.266C6.87515 12.5588 7.93829 12.8517 9.00781 13.1318C9.20516 13.1827 9.30702 13.2718 9.37704 13.4756C9.75265 14.6215 10.1728 15.7546 10.5293 16.9069C10.733 17.5626 11.3378 17.6581 11.7707 17.2061C12.2545 16.6968 12.7893 16.2448 13.2859 15.7546C13.4259 15.621 13.5087 15.6273 13.6615 15.7292C14.7692 16.4931 15.8896 17.2316 16.991 18.0019C17.5194 18.3711 18.1496 18.0847 18.2769 17.5053C18.9517 14.4305 19.6584 11.3684 20.3523 8.29988C20.4542 7.84151 20.5497 7.38951 20.6451 6.98845Z" fill="#51ACFD"/>
<path d="M9.88652 13.1251C9.86742 12.9023 10.0075 12.8259 10.1539 12.7432C11.8728 11.7628 13.5853 10.776 15.2978 9.79562C16.0553 9.36272 16.8129 8.92983 17.5705 8.49693C17.6341 8.45873 17.6978 8.4269 17.7615 8.4078C17.8378 8.3887 17.9015 8.42053 17.9397 8.49056C17.9715 8.55422 17.9461 8.61789 17.9015 8.66245C17.8569 8.70701 17.806 8.74521 17.7551 8.78341C15.6861 10.4768 13.6235 12.1638 11.5481 13.8509C11.3762 13.9909 11.2871 14.1437 11.268 14.3729C11.2107 14.9586 11.1343 15.5379 11.0643 16.1236C11.0579 16.1809 11.077 16.27 10.9942 16.2827C10.9051 16.2955 10.9051 16.2127 10.886 16.1554C10.5613 15.1878 10.2367 14.2137 9.91198 13.2461C9.89925 13.1952 9.89289 13.1442 9.88652 13.1251Z" fill="#51ACFD"/>
</svg>
