<svg width="25" height="25" viewBox="0 0 25 25" fill="none" xmlns="http://www.w3.org/2000/svg">
<path fill-rule="evenodd" clip-rule="evenodd" d="M21.6439 0H3.46553C1.74419 0 0.33252 1.41162 0.33252 3.13301V21.3114C0.33252 23.0329 1.74419 24.4444 3.46553 24.4444H21.6439C23.3653 24.4444 24.777 23.0329 24.777 21.3114V3.13301C24.777 1.41162 23.3653 0 21.6439 0ZM18.1072 12.9043C18.1881 13.6704 20.8722 15.2758 20.6715 16.5109C20.5811 17.0644 19.6523 16.9665 18.8284 16.9926C18.0675 17.0171 17.3234 16.9674 16.9865 16.8324C16.4296 16.6096 14.9674 14.6736 14.5824 14.7494C13.7269 14.9159 14.0366 16.7071 13.7815 16.8324C13.4161 17.0116 12.2299 16.958 11.7801 16.9118C9.36958 16.5069 7.97222 14.8916 6.65243 12.8256C5.03879 10.2998 4.08428 8.40349 4.48945 8.17804C4.93485 7.93069 6.18177 7.98325 7.45364 8.01712C7.83228 8.02852 8.93289 10.769 9.21558 11.2241C10.363 13.0599 10.7222 11.7038 10.7383 11.5441C11.0493 8.25081 10.2431 8.39936 9.77663 8.338C10.1283 7.27029 12.5798 7.45693 12.5798 7.45693C12.5798 7.45693 13.4 7.65534 13.7015 7.85741C13.8255 7.94154 13.9646 8.20727 13.9415 9.06008C13.9088 10.3442 13.7784 12.0957 14.3427 12.1043C14.778 12.1106 15.4676 11.0868 16.025 10.0213C16.5181 9.07846 16.8978 8.16444 17.0659 8.09839C17.248 8.02664 18.0355 8.0217 18.8284 8.01706C19.6048 8.0134 20.3875 8.00693 20.5912 8.17799C21.0019 8.52454 20.2877 9.64863 19.6291 10.5815C19.09 11.3485 18.0494 12.358 18.1072 12.9043Z" fill="#333333"/>
</svg>
