<svg width="25" height="25" viewBox="0 0 25 25" fill="none" xmlns="http://www.w3.org/2000/svg">
<path d="M12.4498 4.95437C8.483 4.95437 5.25829 8.17907 5.25284 12.1458C5.25284 13.5045 5.63478 14.8304 6.35502 15.9707L6.52417 16.2436L5.79847 18.8953L8.52119 18.1806L8.78309 18.3388C9.88528 18.9936 11.1511 19.3428 12.4443 19.3428H12.4498C16.4111 19.3428 19.7231 16.1181 19.7231 12.1513C19.7231 10.2307 18.8937 8.4246 17.5351 7.06597C16.171 5.70188 14.3704 4.95437 12.4498 4.95437ZM16.6784 15.2341C16.4984 15.7416 15.6363 16.1999 15.2216 16.2599C14.5341 16.3636 13.9994 16.309 12.6298 15.7197C10.4636 14.7812 9.045 12.5987 8.93587 12.4568C8.82675 12.315 8.05194 11.2837 8.05194 10.2197C8.05194 9.15575 8.60849 8.63194 8.81038 8.41369C9.0068 8.19544 9.24143 8.14087 9.38875 8.14087C9.53061 8.14087 9.67794 8.14087 9.80343 8.14633C9.93438 8.15178 10.1144 8.09722 10.289 8.51736C10.4691 8.94841 10.9002 10.0124 10.9547 10.1215C11.0093 10.2307 11.0475 10.3561 10.9711 10.498C10.5564 11.3274 10.1144 11.2946 10.3382 11.6766C11.173 13.1116 12.0078 13.6081 13.2791 14.2465C13.4974 14.3557 13.6229 14.3393 13.7484 14.192C13.8739 14.0501 14.2885 13.559 14.4304 13.3462C14.5723 13.128 14.7196 13.1662 14.916 13.2371C15.1125 13.308 16.1764 13.8318 16.3947 13.941C16.613 14.0501 16.7548 14.1047 16.8094 14.192C16.8585 14.2956 16.8585 14.7321 16.6784 15.2341ZM22.0529 0H2.84659C1.40065 0 0.227539 1.17312 0.227539 2.61905V21.8254C0.227539 23.2713 1.40065 24.4444 2.84659 24.4444H22.0529C23.4989 24.4444 24.672 23.2713 24.672 21.8254V2.61905C24.672 1.17312 23.4989 0 22.0529 0ZM12.4443 20.7996C10.9929 20.7996 9.56881 20.434 8.30839 19.7465L3.7196 20.9524L4.94728 16.4673C4.18885 15.1577 3.79053 13.6682 3.79053 12.1404C3.79599 7.37153 7.67546 3.49206 12.4443 3.49206C14.7578 3.49206 16.9294 4.39236 18.5663 6.02927C20.1978 7.66617 21.1799 9.8378 21.1799 12.1513C21.1799 16.9201 17.2132 20.7996 12.4443 20.7996Z" fill="#06CC32"/>
</svg>
